<?xml version="1.0" encoding="utf-8"?>
<svg xmlns="http://www.w3.org/2000/svg">
  <defs>
    <symbol id="calendar" viewBox="0 0 24 24">
      <title>Calendar</title>
      <path d="M16.993 2.883A1 1 0 0 0 15 3v1H9V3l-.007-.117A1 1 0 0 0 7 3v1H6a3 3 0 0 0-3 3v12a3 3 0 0 0 3 3h12a3 3 0 0 0 3-3V7a3 3 0 0 0-3-3h-1V3zM19 10V7a1 1 0 0 0-1-1h-1v1a1 1 0 0 1-1.993.117L15 7V6H9v1a1 1 0 0 1-1.993.117L7 7V6H6a1 1 0 0 0-1 1v3zM5 12h14v7a1 1 0 0 1-1 1H6a1 1 0 0 1-1-1zm7.993 2.883A.918.918 0 0 1 13 15v3a1 1 0 0 1-1.993.117L11 18v-2a1 1 0 0 1-.117-1.993L11 14h1a1 1 0 0 1 .993.883" />
    </symbol>
    <symbol id="check" viewBox="0 0 24 24">
      <title>Check</title>
    <path d="M19.293 6.293a1 1 0 0 1 1.497 1.32l-.083.094-10 10a1 1 0 0 1-1.32.083l-.094-.083-5-5a1 1 0 0 1 1.32-1.497l.094.083L10 15.585z" />
    </symbol>
    <symbol id="chevron" viewBox="0 0 24 24">
      <title>Chevron</title>
      <path d="M5.293 8.293a1 1 0 0 1 1.32-.083l.094.083L12 13.585l5.293-5.292a1 1 0 0 1 1.32-.083l.094.083a1 1 0 0 1 .083 1.32l-.083.094-6 6a1 1 0 0 1-1.32.083l-.094-.083-6-6a1 1 0 0 1 0-1.414" />
    </symbol>
    <symbol id="close" viewBox="0 0 24 24">
      <title>Close</title>
      <path d="M6.613 5.21a1 1 0 0 0-1.32 1.497L10.586 12l-5.293 5.293-.083.094a1 1 0 0 0 1.498 1.32L12 13.414l5.292 5.293.095.083a1 1 0 0 0 1.32-1.497L13.415 12l5.293-5.293.083-.094a1 1 0 0 0-1.498-1.32l-5.292 5.293-5.293-5.293z" />
    </symbol>
    <symbol id="eyeclosed" viewBox="0 0 24 24">
      <title>Eye closed</title>
      <path d="M2.294 2.293a1 1 0 0 1 1.32-.083l.094.083 14.276 14.276a.996.996 0 0 1 .152.152l3.572 3.572a1 1 0 0 1-1.32 1.497l-.094-.083-3.087-3.087A10.319 10.319 0 0 1 12 20c-4.396 0-8.037-2.549-10.869-7.504a1 1 0 0 1 0-.992C2.323 9.42 3.653 7.764 5.128 6.54L2.294 3.707a1 1 0 0 1 0-1.414m4.255 5.67c-1.14.912-2.203 2.147-3.187 3.71l-.2.327.117.194c2.351 3.8 5.147 5.696 8.43 5.801l.292.005a8.31 8.31 0 0 0 3.728-.858l-2.434-2.433a3.002 3.002 0 0 1-4.003-4.004zm4.687 4.686.116.116a1.027 1.027 0 0 1-.116-.116M12 3.999c4.395 0 8.036 2.55 10.868 7.505a1 1 0 0 1 0 .992c-.815 1.425-1.693 2.65-2.637 3.67a1 1 0 0 1-1.469-1.357 16.922 16.922 0 0 0 1.867-2.468l.21-.341-.118-.194c-2.351-3.8-5.147-5.696-8.433-5.802L11.996 6a8.469 8.469 0 0 0-2.358.326 1 1 0 1 1-.55-1.923c.948-.27 1.93-.407 2.912-.403" />
    </symbol>
    <symbol id="eyeopened" viewBox="0 0 24 24">
      <title>Eye opened</title>
      <path d="M12 4c4.29 0 7.863 2.429 10.665 7.154l.22.379.045.1.03.083.014.055.014.082.011.1v.11l-.014.111a1.006 1.006 0 0 1-.026.11l-.039.108-.036.075-.016.03c-2.764 4.836-6.3 7.38-10.555 7.499L12 20c-4.396 0-8.037-2.549-10.868-7.504a1 1 0 0 1 0-.992C3.963 6.549 7.604 4 12 4m0 2c-3.41 0-6.3 1.895-8.721 5.806L3.16 12l.118.194c2.351 3.8 5.147 5.696 8.43 5.801L12 18c3.41 0 6.3-1.895 8.721-5.806l.117-.194-.117-.194c-2.351-3.8-5.146-5.696-8.43-5.801zm0 3a3 3 0 1 0 0 6 3 3 0 0 0 0-6m0 2a1 1 0 1 1 0 2 1 1 0 0 1 0-2" />
    </symbol>
    <symbol id="logout" viewBox="0 0 24 24">
      <title>Logout</title>
      <path d="M14.995 5.824A3 3 0 0 0 12 3H5l-.176.005A3 3 0 0 0 2 6v12l.005.176A3 3 0 0 0 5 21h7l.176-.005A3 3 0 0 0 15 18v-2l-.007-.117A1 1 0 0 0 13 16v2l-.007.117A1 1 0 0 1 12 19H5l-.117-.007A1 1 0 0 1 4 18V6l.007-.117A1 1 0 0 1 5 5h7l.117.007A1 1 0 0 1 13 6v2l.007.117A1 1 0 0 0 15 8V6zm3.712 2.469-.094-.083-.102-.07a1 1 0 0 0-1.218.153l-.083.094a1 1 0 0 0 .083 1.32L18.585 11H7l-.117.007A1 1 0 0 0 7 13h11.584l-1.291 1.293-.083.094a1 1 0 0 0 1.497 1.32l2.96-2.958c.103-.094.186-.208.243-.334l.04-.104.037-.146a.98.98 0 0 0-.28-.872z" />
    </symbol>
    <symbol id="minus" viewBox="0 0 24 24">
      <title>Minus</title>
      <path d="M19 11a1 1 0 0 1 .117 1.993L19 13H5a1 1 0 0 1-.117-1.993L5 11z" />
    </symbol>
    <symbol id="plus" viewBox="0 0 24 24">
      <title>Plus</title>
      <path d="M12.993 4.883A1 1 0 0 0 11 5v6H5l-.117.007A1 1 0 0 0 5 13h6v6l.007.117A1 1 0 0 0 13 19v-6h6l.117-.007A1 1 0 0 0 19 11h-6V5z" />
    </symbol>
    <symbol id="question" viewBox="0 0 24 24">
      <title>Question</title>
      <path d="M11 15a1 1 0 1 0 2 0 3.25 3.25 0 0 1 1.39-3.08A4 4 0 0 0 17 8a4.27 4.27 0 0 0-4.5-4h-1A4.27 4.27 0 0 0 7 8a1 1 0 0 0 2 0 2.3 2.3 0 0 1 2.5-2h1A2.3 2.3 0 0 1 15 8.05a2 2 0 0 1-1.33 2h-.09A5.14 5.14 0 0 0 11 15m0 4a1 1 0 1 0 2 0 1 1 0 0 0-2 0" />
    </symbol>
    <symbol id="thumbsdown" viewBox="0 0 24 24">
      <title>Thumbs down</title>
      <path d="M16.915 3.004c1.406-.12 2.569.984 3.015 2.603l.05.197 1 5L21 11a3 3 0 0 1-2.824 2.995L18 14l-2-.001V18a3 3 0 0 1-2.824 2.995L13 21a3 3 0 0 1-2.995-2.824L10 18v-1a3 3 0 0 0-2.824-2.995L7 14H4a2 2 0 0 1-1.995-1.85L2 12V5a2 2 0 0 1 1.85-1.995L4 3h2c.593 0 1.126.258 1.493.669L7.6 3.8l.068-.05A3.98 3.98 0 0 1 9.8 3.005L10 3zM17.086 5H10a2 2 0 0 0-1.995 1.85L8 7v5.102l.059.011a5.002 5.002 0 0 1 3.936 4.671L12 17v1a1 1 0 0 0 1.993.117L14 18v-5a1 1 0 0 1 .883-.993L15 12h3a1 1 0 0 0 .993-.883l.002-.04-.969-4.849c-.18-.768-.565-1.195-.94-1.227M4 12l2-.001V5H4z" />
    </symbol>
    <symbol id="thumbsup" viewBox="0 0 24 24">
      <title>Thumbs up</title>
      <path d="M13 3a3 3 0 0 1 2.995 2.824L16 6v4h2a3 3 0 0 1 2.995 2.824L21 13l-.02.196-1.006 5.032c-.381 1.626-1.502 2.796-2.81 2.78L17 21h-7a3.98 3.98 0 0 1-2.332-.75L7.6 20.2c-.34.451-.86.752-1.45.795L6 21H4a2 2 0 0 1-1.995-1.85L2 19v-7a2 2 0 0 1 1.85-1.995L4 10h3a3 3 0 0 0 2.995-2.824L10 7V6a3 3 0 0 1 3-3m0 2a1 1 0 0 0-.993.883L12 6v1a5.002 5.002 0 0 1-3.941 4.888l-.059.01V17a2 2 0 0 0 1.85 1.994L10 19l7.085.004c.293.025.686-.346.89-1.035l.044-.165.976-4.883-.002-.038a1 1 0 0 0-.876-.876L18 12h-3a1 1 0 0 1-.993-.883L14 11V6a1 1 0 0 0-1-1M6 19v-7H4v7z" />
    </symbol>
    <symbol id="upload" viewBox="0 0 24 24">
      <title>Upload</title>
      <path d="M13.434 6.036c-2.598-.479-4.98 1.05-5.455 3.184a1 1 0 0 1-.977.782c-2.09 0-3.701 1.603-3.701 3.5 0 1.886 1.62 3.5 3.711 3.5a1 1 0 1 1 0 2c-3.11 0-5.712-2.426-5.712-5.5 0-2.827 2.179-5.095 4.941-5.451 1.064-2.9 4.333-4.575 7.554-3.982 3.068.557 5.334 3.042 5.319 5.935a4.498 4.498 0 0 1 4.386 4.498c0 2.483-2.019 4.5-4.502 4.5h-1a1 1 0 1 1 0-2h1a2.504 2.504 0 0 0 2.5-2.5c0-1.386-1.12-2.5-2.5-2.5h-1a1 1 0 0 1-.977-1.22c.474-2.092-1.014-4.28-3.584-4.746z" /><path d="M11.307 11.295a1 1 0 0 1 1.415 0l3.001 3a1 1 0 1 1-1.414 1.414l-2.294-2.293L9.72 15.71a1 1 0 0 1-1.415-1.414z" /><path d="M12.015 11.002a1 1 0 0 1 1 1v9a1 1 0 0 1-2 0v-9a1 1 0 0 1 1-1" />
    </symbol>
    <symbol id="user" viewBox="0 0 24 24">
      <title>User</title>
      <path d="M12 2a5 5 0 1 0 0 10 5 5 0 0 0 0-10m0 2a3 3 0 1 1 0 6 3 3 0 0 1 0-6m6.995 14.783A5 5 0 0 0 14 14h-4l-.217.005A5 5 0 0 0 5 19v2l.007.117A1 1 0 0 0 7 21v-2l.005-.176A3 3 0 0 1 10 16h4l.176.005A3 3 0 0 1 17 19v2l.007.117A1 1 0 0 0 19 21v-2z" />
    </symbol>
  </defs>
</svg>
