<svg xmlns="http://www.w3.org/2000/svg" viewBox="0 0 24 24"><path fill-rule="evenodd" d="M16.993 2.883A1 1 0 0 0 15 3v1H9V3l-.007-.117A1 1 0 0 0 7 3v1H6a3 3 0 0 0-3 3v12a3 3 0 0 0 3 3h12a3 3 0 0 0 3-3V7a3 3 0 0 0-3-3h-1V3zM19 10V7a1 1 0 0 0-1-1h-1v1a1 1 0 0 1-1.993.117L15 7V6H9v1a1 1 0 0 1-1.993.117L7 7V6H6a1 1 0 0 0-1 1v3zM5 12h14v7a1 1 0 0 1-1 1H6a1 1 0 0 1-1-1zm7.993 2.883A.918.918 0 0 1 13 15v3a1 1 0 0 1-1.993.117L11 18v-2a1 1 0 0 1-.117-1.993L11 14h1a1 1 0 0 1 .993.883" clip-rule="evenodd"/></svg>