<svg xmlns="http://www.w3.org/2000/svg" viewBox="0 0 24 24"><path fill-rule="evenodd" d="M12 4c4.29 0 7.863 2.429 10.665 7.154l.22.379.045.1.03.083.014.055.014.082.011.1v.11l-.014.111a1.006 1.006 0 0 1-.026.11l-.039.108-.036.075-.016.03c-2.764 4.836-6.3 7.38-10.555 7.499L12 20c-4.396 0-8.037-2.549-10.868-7.504a1 1 0 0 1 0-.992C3.963 6.549 7.604 4 12 4m0 2c-3.41 0-6.3 1.895-8.721 5.806L3.16 12l.118.194c2.351 3.8 5.147 5.696 8.43 5.801L12 18c3.41 0 6.3-1.895 8.721-5.806l.117-.194-.117-.194c-2.351-3.8-5.146-5.696-8.43-5.801zm0 3a3 3 0 1 0 0 6 3 3 0 0 0 0-6m0 2a1 1 0 1 1 0 2 1 1 0 0 1 0-2" clip-rule="evenodd"/></svg>