<svg xmlns="http://www.w3.org/2000/svg" viewBox="0 0 24 24"><path fill-rule="evenodd" d="M14.995 5.824A3 3 0 0 0 12 3H5l-.176.005A3 3 0 0 0 2 6v12l.005.176A3 3 0 0 0 5 21h7l.176-.005A3 3 0 0 0 15 18v-2l-.007-.117A1 1 0 0 0 13 16v2l-.007.117A1 1 0 0 1 12 19H5l-.117-.007A1 1 0 0 1 4 18V6l.007-.117A1 1 0 0 1 5 5h7l.117.007A1 1 0 0 1 13 6v2l.007.117A1 1 0 0 0 15 8V6zm3.712 2.469-.094-.083-.102-.07a1 1 0 0 0-1.218.153l-.083.094a1 1 0 0 0 .083 1.32L18.585 11H7l-.117.007A1 1 0 0 0 7 13h11.584l-1.291 1.293-.083.094a1 1 0 0 0 1.497 1.32l2.96-2.958c.103-.094.186-.208.243-.334l.04-.104.037-.146a.98.98 0 0 0-.28-.872z" clip-rule="evenodd"/></svg>