<svg xmlns="http://www.w3.org/2000/svg" viewBox="0 0 24 24"><path fill-rule="evenodd" d="M16.915 3.004c1.406-.12 2.569.984 3.015 2.603l.05.197 1 5L21 11a3 3 0 0 1-2.824 2.995L18 14l-2-.001V18a3 3 0 0 1-2.824 2.995L13 21a3 3 0 0 1-2.995-2.824L10 18v-1a3 3 0 0 0-2.824-2.995L7 14H4a2 2 0 0 1-1.995-1.85L2 12V5a2 2 0 0 1 1.85-1.995L4 3h2c.593 0 1.126.258 1.493.669L7.6 3.8l.068-.05A3.98 3.98 0 0 1 9.8 3.005L10 3zM17.086 5H10a2 2 0 0 0-1.995 1.85L8 7v5.102l.059.011a5.002 5.002 0 0 1 3.936 4.671L12 17v1a1 1 0 0 0 1.993.117L14 18v-5a1 1 0 0 1 .883-.993L15 12h3a1 1 0 0 0 .993-.883l.002-.04-.969-4.849c-.18-.768-.565-1.195-.94-1.227M4 12l2-.001V5H4z" clip-rule="evenodd"/></svg>