<svg xmlns="http://www.w3.org/2000/svg" viewBox="0 0 24 24"><path fill-rule="evenodd" d="M13.434 6.036c-2.598-.479-4.98 1.05-5.455 3.184a1 1 0 0 1-.977.782c-2.09 0-3.701 1.603-3.701 3.5 0 1.886 1.62 3.5 3.711 3.5a1 1 0 1 1 0 2c-3.11 0-5.712-2.426-5.712-5.5 0-2.827 2.179-5.095 4.941-5.451 1.064-2.9 4.333-4.575 7.554-3.982 3.068.557 5.334 3.042 5.319 5.935a4.498 4.498 0 0 1 4.386 4.498c0 2.483-2.019 4.5-4.502 4.5h-1a1 1 0 1 1 0-2h1a2.504 2.504 0 0 0 2.5-2.5c0-1.386-1.12-2.5-2.5-2.5h-1a1 1 0 0 1-.977-1.22c.474-2.092-1.014-4.28-3.584-4.746z" clip-rule="evenodd"/><path fill-rule="evenodd" d="M11.307 11.295a1 1 0 0 1 1.415 0l3.001 3a1 1 0 1 1-1.414 1.414l-2.294-2.293L9.72 15.71a1 1 0 0 1-1.415-1.414z" clip-rule="evenodd"/><path fill-rule="evenodd" d="M12.015 11.002a1 1 0 0 1 1 1v9a1 1 0 0 1-2 0v-9a1 1 0 0 1 1-1" clip-rule="evenodd"/></svg>