<svg xmlns="http://www.w3.org/2000/svg" viewBox="0 0 24 24"><path fill-rule="evenodd" d="M2.294 2.293a1 1 0 0 1 1.32-.083l.094.083 14.276 14.276a.996.996 0 0 1 .152.152l3.572 3.572a1 1 0 0 1-1.32 1.497l-.094-.083-3.087-3.087A10.319 10.319 0 0 1 12 20c-4.396 0-8.037-2.549-10.869-7.504a1 1 0 0 1 0-.992C2.323 9.42 3.653 7.764 5.128 6.54L2.294 3.707a1 1 0 0 1 0-1.414m4.255 5.67c-1.14.912-2.203 2.147-3.187 3.71l-.2.327.117.194c2.351 3.8 5.147 5.696 8.43 5.801l.292.005a8.31 8.31 0 0 0 3.728-.858l-2.434-2.433a3.002 3.002 0 0 1-4.003-4.004zm4.687 4.686.116.116a1.027 1.027 0 0 1-.116-.116M12 3.999c4.395 0 8.036 2.55 10.868 7.505a1 1 0 0 1 0 .992c-.815 1.425-1.693 2.65-2.637 3.67a1 1 0 0 1-1.469-1.357 16.922 16.922 0 0 0 1.867-2.468l.21-.341-.118-.194c-2.351-3.8-5.147-5.696-8.433-5.802L11.996 6a8.469 8.469 0 0 0-2.358.326 1 1 0 1 1-.55-1.923c.948-.27 1.93-.407 2.912-.403" clip-rule="evenodd"/></svg>