<svg xmlns="http://www.w3.org/2000/svg" viewBox="0 0 24 24"><path fill-rule="evenodd" d="M13 3a3 3 0 0 1 2.995 2.824L16 6v4h2a3 3 0 0 1 2.995 2.824L21 13l-.02.196-1.006 5.032c-.381 1.626-1.502 2.796-2.81 2.78L17 21h-7a3.98 3.98 0 0 1-2.332-.75L7.6 20.2c-.34.451-.86.752-1.45.795L6 21H4a2 2 0 0 1-1.995-1.85L2 19v-7a2 2 0 0 1 1.85-1.995L4 10h3a3 3 0 0 0 2.995-2.824L10 7V6a3 3 0 0 1 3-3m0 2a1 1 0 0 0-.993.883L12 6v1a5.002 5.002 0 0 1-3.941 4.888l-.059.01V17a2 2 0 0 0 1.85 1.994L10 19l7.085.004c.293.025.686-.346.89-1.035l.044-.165.976-4.883-.002-.038a1 1 0 0 0-.876-.876L18 12h-3a1 1 0 0 1-.993-.883L14 11V6a1 1 0 0 0-1-1M6 19v-7H4v7z" clip-rule="evenodd"/></svg>